<?xml version="1.0" encoding="UTF-8" standalone="no" ?>
<!DOCTYPE svg PUBLIC "-//W3C//DTD SVG 1.1//EN" "http://www.w3.org/Graphics/SVG/1.1/DTD/svg11.dtd">
<svg xmlns="http://www.w3.org/2000/svg" xmlns:xlink="http://www.w3.org/1999/xlink" version="1.1" width="208.97318209599325" height="208.97318209599325" viewBox="127.49199014985703 168.530824767868 208.97318209599325 208.97318209599325" xml:space="preserve">
<desc>Created with Fabric.js 5.3.0</desc>
<defs>
</defs>
<g transform="matrix(0.9649075577 0 0 0.9649075577 231.9785811979 273.0174158159)" id="HzZkZGfp7MbR2YJaJ_Vz7"  >
<path style="stroke: rgb(74,103,25); stroke-width: 0; stroke-dasharray: none; stroke-linecap: butt; stroke-dashoffset: 0; stroke-linejoin: miter; stroke-miterlimit: 4; fill: rgb(255,255,255); fill-rule: nonzero; opacity: 1;"  transform=" translate(0, 0)" d="M 0 -108.28663 C 59.77422 -108.28663 108.28663 -59.77422 108.28663 0 C 108.28663 59.77422 59.77422 108.28663 0 108.28663 C -59.77422 108.28663 -108.28663 59.77422 -108.28663 0 C -108.28663 -59.77422 -59.77422 -108.28663 0 -108.28663 z" stroke-linecap="round" />
</g>
<g transform="matrix(1 0 0 1 231.9785811979 283.4225399151)" id="cGoCQsOto3Fjq6VNn990j"  >
<g style=""   >
		<g transform="matrix(1 0 0 1 0 -26.6212968515)" id="Wco2BixyFs4Q3gOEdok0T"  >
<path style="stroke: rgb(115,87,155); stroke-width: 0; stroke-dasharray: none; stroke-linecap: butt; stroke-dashoffset: 0; stroke-linejoin: miter; stroke-miterlimit: 4; fill: rgb(15,23,42); fill-rule: nonzero; opacity: 1;"  transform=" translate(-24.019215, -24.019215)" d="M 0 10.19049 C 0 4.5624400000000005 4.56244 0 10.19049 0 L 37.84794 0 L 37.84794 0 C 43.47599 0 48.038430000000005 4.56244 48.038430000000005 10.19049 L 48.038430000000005 37.84794 L 48.038430000000005 37.84794 C 48.038430000000005 43.47599 43.47599 48.038430000000005 37.84794000000001 48.038430000000005 L 10.190490000000008 48.038430000000005 L 10.190490000000008 48.038430000000005 C 4.562440000000008 48.038430000000005 7.105427357601002e-15 43.47599 7.105427357601002e-15 37.84794000000001 z" stroke-linecap="round" />
</g>
		<g transform="matrix(1 0 0 1 53.6509202209 -26.6212968515)" id="-8bC5rGxn8YcyQPR6IKwP"  >
<path style="stroke: rgb(115,87,155); stroke-width: 0; stroke-dasharray: none; stroke-linecap: butt; stroke-dashoffset: 0; stroke-linejoin: miter; stroke-miterlimit: 4; fill: rgb(15,23,42); fill-rule: nonzero; opacity: 1;"  transform=" translate(-24.019215, -24.019215)" d="M 0 10.19049 C 0 4.5624400000000005 4.56244 0 10.19049 0 L 37.84794 0 L 37.84794 0 C 43.47599 0 48.038430000000005 4.56244 48.038430000000005 10.19049 L 48.038430000000005 37.84794 L 48.038430000000005 37.84794 C 48.038430000000005 43.47599 43.47599 48.038430000000005 37.84794000000001 48.038430000000005 L 10.190490000000008 48.038430000000005 L 10.190490000000008 48.038430000000005 C 4.562440000000008 48.038430000000005 7.105427357601002e-15 43.47599 7.105427357601002e-15 37.84794000000001 z" stroke-linecap="round" />
</g>
		<g transform="matrix(1 0 0 1 29.6317052209 26.6212968515)" id="VG3qd65YHhjFaupj0NhxU"  >
<path style="stroke: rgb(115,87,155); stroke-width: 0; stroke-dasharray: none; stroke-linecap: butt; stroke-dashoffset: 0; stroke-linejoin: miter; stroke-miterlimit: 4; fill: rgb(15,23,42); fill-rule: nonzero; opacity: 1;"  transform=" translate(-24.019215, -24.019215)" d="M 0 10.19049 C 0 4.5624400000000005 4.56244 0 10.19049 0 L 37.84794 0 L 37.84794 0 C 43.47599 0 48.038430000000005 4.56244 48.038430000000005 10.19049 L 48.038430000000005 37.84794 L 48.038430000000005 37.84794 C 48.038430000000005 43.47599 43.47599 48.038430000000005 37.84794000000001 48.038430000000005 L 10.190490000000008 48.038430000000005 L 10.190490000000008 48.038430000000005 C 4.562440000000008 48.038430000000005 7.105427357601002e-15 43.47599 7.105427357601002e-15 37.84794000000001 z" stroke-linecap="round" />
</g>
		<g transform="matrix(1 0 0 1 -29.6317052209 26.6212968515)" id="gO2hnmv3-_qOaMfl1oEzo"  >
<path style="stroke: rgb(115,87,155); stroke-width: 0; stroke-dasharray: none; stroke-linecap: butt; stroke-dashoffset: 0; stroke-linejoin: miter; stroke-miterlimit: 4; fill: rgb(15,23,42); fill-rule: nonzero; opacity: 1;"  transform=" translate(-24.019215, -24.019215)" d="M 0 10.19049 C 0 4.5624400000000005 4.56244 0 10.19049 0 L 37.84794 0 L 37.84794 0 C 43.47599 0 48.038430000000005 4.56244 48.038430000000005 10.19049 L 48.038430000000005 37.84794 L 48.038430000000005 37.84794 C 48.038430000000005 43.47599 43.47599 48.038430000000005 37.84794000000001 48.038430000000005 L 10.190490000000008 48.038430000000005 L 10.190490000000008 48.038430000000005 C 4.562440000000008 48.038430000000005 7.105427357601002e-15 43.47599 7.105427357601002e-15 37.84794000000001 z" stroke-linecap="round" />
</g>
		<g transform="matrix(1 0 0 1 -53.6509202209 -26.6212968515)" id="xhzOSzSlVQpf7plGh8Y4s"  >
<path style="stroke: rgb(115,87,155); stroke-width: 0; stroke-dasharray: none; stroke-linecap: butt; stroke-dashoffset: 0; stroke-linejoin: miter; stroke-miterlimit: 4; fill: rgb(15,23,42); fill-rule: nonzero; opacity: 1;"  transform=" translate(-24.019215, -24.019215)" d="M 0 10.19049 C 0 4.5624400000000005 4.56244 0 10.19049 0 L 37.84794 0 L 37.84794 0 C 43.47599 0 48.038430000000005 4.56244 48.038430000000005 10.19049 L 48.038430000000005 37.84794 L 48.038430000000005 37.84794 C 48.038430000000005 43.47599 43.47599 48.038430000000005 37.84794000000001 48.038430000000005 L 10.190490000000008 48.038430000000005 L 10.190490000000008 48.038430000000005 C 4.562440000000008 48.038430000000005 7.105427357601002e-15 43.47599 7.105427357601002e-15 37.84794000000001 z" stroke-linecap="round" />
</g>
</g>
</g>
</svg>